<mxfile host="65bd71144e">
    <diagram id="GUgzIVMnp3jkrsO2qqFV" name="Страница 1">
        <mxGraphModel dx="680" dy="1521" grid="1" gridSize="10" guides="1" tooltips="1" connect="1" arrows="1" fold="1" page="1" pageScale="1" pageWidth="827" pageHeight="1169" math="0" shadow="0">
            <root>
                <mxCell id="0"/>
                <mxCell id="1" parent="0"/>
                <mxCell id="6buULSpLYs9w62zqvoPo-1" value="«interface Terminal»&lt;br&gt;&lt;b&gt;Calculator&lt;/b&gt;" style="html=1;" parent="1" vertex="1">
                    <mxGeometry x="545" y="50" width="110" height="50" as="geometry"/>
                </mxCell>
                <mxCell id="6buULSpLYs9w62zqvoPo-2" value="&lt;font style=&quot;font-size: 9px;&quot;&gt;&quot;Программа приветствует &lt;br&gt;+ меню знаков которые пользователь может ввести&lt;br&gt;&lt;br&gt;input&amp;nbsp; с консоли&amp;nbsp;&lt;br&gt;+ рандом ( для теста)&lt;/font&gt;" style="html=1;" parent="1" vertex="1">
                    <mxGeometry x="100" y="190" width="265" height="100" as="geometry"/>
                </mxCell>
                <mxCell id="6buULSpLYs9w62zqvoPo-3" value="1. Создать калькулятор для работы с рациональными и комплексными числами, организовать меню, добавив в неё систему логирования.&#10;Пример распределение по ролям: &#10;&#10;Руководитель (Antony) сборка, тестирование, &#10;Antony Первый участник группы может выступать в качестве эксперта, консультируя остальных по вопросам связанных с тем, как, например, складывать числа, или делить комплексные числа&#10;&#10;Евгений Второй участник группы пишет модуль работы с комплексными числами&#10;&#10;Геннадий Третий участник группы пишет модуль работы с рациональными числами&#10;&#10;Татьяна Четвертый участник описывает пользовательское меню и UI для работы с калькулятором. (в качестве UI используется консоль)&#10;&#10;Сергей Пятый участник описывает логгирование. (дата время, результат, выражения вводимые)" style="text;align=left;fontStyle=1;verticalAlign=middle;spacingLeft=3;spacingRight=3;strokeColor=none;rotatable=0;points=[[0,0.5],[1,0.5]];portConstraint=eastwest;fontSize=9;" parent="1" vertex="1">
                    <mxGeometry x="100" y="-110" width="990" height="149" as="geometry"/>
                </mxCell>
                <mxCell id="6buULSpLYs9w62zqvoPo-4" value="Module Logger.py" style="shape=module;align=left;spacingLeft=20;align=center;verticalAlign=top;fontSize=9;" parent="1" vertex="1">
                    <mxGeometry x="350" y="240" width="180" height="50" as="geometry"/>
                </mxCell>
                <mxCell id="6buULSpLYs9w62zqvoPo-5" value="main.py" style="shape=module;align=left;spacingLeft=20;align=center;verticalAlign=top;fontSize=9;" parent="1" vertex="1">
                    <mxGeometry x="350" y="190" width="180" height="50" as="geometry"/>
                </mxCell>
                <mxCell id="6buULSpLYs9w62zqvoPo-6" value="Module Complex_Number.py &#10;дробь (/)&#10;Сложение и вычитание (-, +)&#10;Умножение (*)&#10;Деление (:)" style="shape=module;align=left;spacingLeft=20;align=center;verticalAlign=top;fontSize=9;" parent="1" vertex="1">
                    <mxGeometry x="365" y="340" width="180" height="70" as="geometry"/>
                </mxCell>
                <mxCell id="6buULSpLYs9w62zqvoPo-7" value="Module Rational.py&#10;Сложение и вычитание (-, +)&#10;Умножение (*)&#10;Деление (:)" style="shape=module;align=left;spacingLeft=20;align=center;verticalAlign=top;fontSize=9;" parent="1" vertex="1">
                    <mxGeometry x="365" y="420" width="180" height="65" as="geometry"/>
                </mxCell>
                <mxCell id="6buULSpLYs9w62zqvoPo-8" value="Как пример&lt;br&gt;4\40 - 6\60 = ?" style="html=1;fontSize=9;" parent="1" vertex="1">
                    <mxGeometry x="255" y="422.5" width="110" height="50" as="geometry"/>
                </mxCell>
                <mxCell id="6buULSpLYs9w62zqvoPo-9" value="Как пример\&lt;br&gt;a+bi&amp;nbsp;&amp;nbsp;" style="html=1;fontSize=9;" parent="1" vertex="1">
                    <mxGeometry x="260" y="337.5" width="110" height="65" as="geometry"/>
                </mxCell>
                <mxCell id="6buULSpLYs9w62zqvoPo-10" value="Определение по виду вводимых данных" style="html=1;verticalAlign=bottom;endArrow=block;rounded=0;fontSize=9;exitX=0.25;exitY=1;exitDx=0;exitDy=0;" parent="1" source="6buULSpLYs9w62zqvoPo-2" edge="1">
                    <mxGeometry x="-0.0248" y="45" width="80" relative="1" as="geometry">
                        <mxPoint x="170" y="342.65999999999997" as="sourcePoint"/>
                        <mxPoint x="259.9999999999998" y="360" as="targetPoint"/>
                        <Array as="points">
                            <mxPoint x="223" y="360"/>
                        </Array>
                        <mxPoint as="offset"/>
                    </mxGeometry>
                </mxCell>
                <mxCell id="6buULSpLYs9w62zqvoPo-11" value="" style="html=1;verticalAlign=bottom;endArrow=block;rounded=0;fontSize=9;entryX=0;entryY=0.5;entryDx=0;entryDy=0;" parent="1" edge="1" target="6buULSpLYs9w62zqvoPo-8">
                    <mxGeometry width="80" relative="1" as="geometry">
                        <mxPoint x="223" y="360" as="sourcePoint"/>
                        <mxPoint x="263" y="418.65999999999985" as="targetPoint"/>
                        <Array as="points">
                            <mxPoint x="220" y="448"/>
                        </Array>
                    </mxGeometry>
                </mxCell>
                <mxCell id="6buULSpLYs9w62zqvoPo-12" value="" style="html=1;verticalAlign=bottom;endArrow=block;rounded=0;fontSize=9;entryX=0.75;entryY=1;entryDx=0;entryDy=0;startArrow=none;" parent="1" source="6buULSpLYs9w62zqvoPo-25" target="6buULSpLYs9w62zqvoPo-13" edge="1">
                    <mxGeometry width="80" relative="1" as="geometry">
                        <mxPoint x="545" y="404.65999999999997" as="sourcePoint"/>
                        <mxPoint x="778" y="300" as="targetPoint"/>
                        <Array as="points">
                            <mxPoint x="803" y="453"/>
                            <mxPoint x="791" y="453"/>
                        </Array>
                    </mxGeometry>
                </mxCell>
                <mxCell id="6buULSpLYs9w62zqvoPo-13" value="Строка которая может содержать целое число либо дробное&lt;br&gt;Выводим историю (вводимой информации)&lt;br&gt;ответ и предложение продолжить &lt;br&gt;либо закончить&lt;br&gt;+ алгоритм выхода из цикла &lt;br&gt;(if пользователь вводит /exit)" style="html=1;fontSize=9;" parent="1" vertex="1">
                    <mxGeometry x="580" y="190" width="281" height="100" as="geometry"/>
                </mxCell>
                <mxCell id="6buULSpLYs9w62zqvoPo-14" value="main.py" style="shape=module;align=left;spacingLeft=20;align=center;verticalAlign=top;fontSize=9;" parent="1" vertex="1">
                    <mxGeometry x="850" y="190" width="180" height="50" as="geometry"/>
                </mxCell>
                <mxCell id="6buULSpLYs9w62zqvoPo-15" value="Module Logger.py" style="shape=module;align=left;spacingLeft=20;align=center;verticalAlign=top;fontSize=9;" parent="1" vertex="1">
                    <mxGeometry x="850" y="240" width="180" height="50" as="geometry"/>
                </mxCell>
                <mxCell id="6buULSpLYs9w62zqvoPo-16" value="" style="html=1;verticalAlign=bottom;endArrow=block;rounded=0;fontSize=9;exitX=1;exitY=0.5;exitDx=0;exitDy=0;startArrow=none;" parent="1" source="6buULSpLYs9w62zqvoPo-23" edge="1">
                    <mxGeometry width="80" relative="1" as="geometry">
                        <mxPoint x="544.9999999999998" y="344.76" as="sourcePoint"/>
                        <mxPoint x="778" y="290" as="targetPoint"/>
                        <Array as="points">
                            <mxPoint x="778" y="375"/>
                        </Array>
                    </mxGeometry>
                </mxCell>
                <mxCell id="6buULSpLYs9w62zqvoPo-17" value="" style="endArrow=block;startArrow=block;endFill=1;startFill=1;html=1;rounded=0;fontSize=9;exitX=0.5;exitY=1;exitDx=0;exitDy=0;entryX=0.5;entryY=1;entryDx=0;entryDy=0;" parent="1" source="6buULSpLYs9w62zqvoPo-4" target="6buULSpLYs9w62zqvoPo-15" edge="1">
                    <mxGeometry width="160" relative="1" as="geometry">
                        <mxPoint x="430" y="320" as="sourcePoint"/>
                        <mxPoint x="970" y="320" as="targetPoint"/>
                        <Array as="points">
                            <mxPoint x="440" y="320"/>
                            <mxPoint x="940" y="320"/>
                        </Array>
                    </mxGeometry>
                </mxCell>
                <mxCell id="6buULSpLYs9w62zqvoPo-18" value="" style="endArrow=block;endFill=1;html=1;edgeStyle=orthogonalEdgeStyle;align=left;verticalAlign=top;rounded=0;fontSize=9;entryX=0.5;entryY=0;entryDx=0;entryDy=0;" parent="1" target="6buULSpLYs9w62zqvoPo-2" edge="1">
                    <mxGeometry x="-1" relative="1" as="geometry">
                        <mxPoint x="770" y="190" as="sourcePoint"/>
                        <mxPoint x="710" y="200" as="targetPoint"/>
                        <Array as="points">
                            <mxPoint x="700" y="190"/>
                            <mxPoint x="700" y="170"/>
                            <mxPoint x="270" y="170"/>
                        </Array>
                    </mxGeometry>
                </mxCell>
                <mxCell id="6buULSpLYs9w62zqvoPo-19" value="Новое условие" style="text;align=center;fontStyle=1;verticalAlign=middle;spacingLeft=3;spacingRight=3;strokeColor=none;rotatable=0;points=[[0,0.5],[1,0.5]];portConstraint=eastwest;fontSize=9;" parent="1" vertex="1">
                    <mxGeometry x="465" y="140" width="80" height="26" as="geometry"/>
                </mxCell>
                <mxCell id="6buULSpLYs9w62zqvoPo-20" value="Вывод ответа" style="html=1;fontSize=9;" parent="1" vertex="1">
                    <mxGeometry x="717" y="80" width="110" height="50" as="geometry"/>
                </mxCell>
                <mxCell id="6buULSpLYs9w62zqvoPo-21" value="" style="endArrow=block;endFill=1;html=1;edgeStyle=orthogonalEdgeStyle;align=left;verticalAlign=top;rounded=0;fontSize=9;entryX=0.5;entryY=1;entryDx=0;entryDy=0;" parent="1" target="6buULSpLYs9w62zqvoPo-20" edge="1">
                    <mxGeometry x="-1" relative="1" as="geometry">
                        <mxPoint x="772" y="190" as="sourcePoint"/>
                        <mxPoint x="910" y="160" as="targetPoint"/>
                        <Array as="points">
                            <mxPoint x="772" y="150"/>
                            <mxPoint x="772" y="150"/>
                        </Array>
                    </mxGeometry>
                </mxCell>
                <mxCell id="6buULSpLYs9w62zqvoPo-23" value="строка" style="text;strokeColor=none;fillColor=none;html=1;fontSize=12;fontStyle=1;verticalAlign=middle;align=center;" parent="1" vertex="1">
                    <mxGeometry x="600" y="365" width="100" height="20" as="geometry"/>
                </mxCell>
                <mxCell id="6buULSpLYs9w62zqvoPo-24" value="" style="html=1;verticalAlign=bottom;endArrow=none;rounded=0;fontSize=9;exitX=1;exitY=0.5;exitDx=0;exitDy=0;" parent="1" source="6buULSpLYs9w62zqvoPo-6" target="6buULSpLYs9w62zqvoPo-23" edge="1">
                    <mxGeometry width="80" relative="1" as="geometry">
                        <mxPoint x="544.9999999999998" y="368" as="sourcePoint"/>
                        <mxPoint x="778.0000000000002" y="290" as="targetPoint"/>
                        <Array as="points"/>
                    </mxGeometry>
                </mxCell>
                <mxCell id="6buULSpLYs9w62zqvoPo-25" value="строка" style="text;strokeColor=none;fillColor=none;html=1;fontSize=12;fontStyle=1;verticalAlign=middle;align=center;" parent="1" vertex="1">
                    <mxGeometry x="620" y="442.5" width="100" height="20" as="geometry"/>
                </mxCell>
                <mxCell id="6buULSpLYs9w62zqvoPo-26" value="" style="html=1;verticalAlign=bottom;endArrow=none;rounded=0;fontSize=9;entryX=0;entryY=0.5;entryDx=0;entryDy=0;" parent="1" source="6buULSpLYs9w62zqvoPo-7" target="6buULSpLYs9w62zqvoPo-25" edge="1">
                    <mxGeometry width="80" relative="1" as="geometry">
                        <mxPoint x="544.9999999999998" y="452.62931034482745" as="sourcePoint"/>
                        <mxPoint x="790.75" y="290" as="targetPoint"/>
                        <Array as="points"/>
                    </mxGeometry>
                </mxCell>
                <mxCell id="6buULSpLYs9w62zqvoPo-27" value="строка" style="text;strokeColor=none;fillColor=none;html=1;fontSize=12;fontStyle=1;verticalAlign=middle;align=center;" parent="1" vertex="1">
                    <mxGeometry x="210" y="310" width="100" height="20" as="geometry"/>
                </mxCell>
                <mxCell id="6buULSpLYs9w62zqvoPo-28" value="4" style="text;html=1;strokeColor=none;fillColor=none;align=center;verticalAlign=middle;whiteSpace=wrap;rounded=0;fontSize=12;" parent="1" vertex="1">
                    <mxGeometry x="70" y="402.5" width="20" height="25" as="geometry"/>
                </mxCell>
                <mxCell id="6buULSpLYs9w62zqvoPo-29" value="" style="line;strokeWidth=2;html=1;fontSize=12;" parent="1" vertex="1">
                    <mxGeometry x="90" y="410" width="20" height="10" as="geometry"/>
                </mxCell>
                <mxCell id="6buULSpLYs9w62zqvoPo-30" value="1" style="text;html=1;strokeColor=none;fillColor=none;align=center;verticalAlign=middle;whiteSpace=wrap;rounded=0;fontSize=12;" parent="1" vertex="1">
                    <mxGeometry x="90" y="393" width="20" height="25" as="geometry"/>
                </mxCell>
                <mxCell id="6buULSpLYs9w62zqvoPo-31" value="4" style="text;html=1;strokeColor=none;fillColor=none;align=center;verticalAlign=middle;whiteSpace=wrap;rounded=0;fontSize=12;" parent="1" vertex="1">
                    <mxGeometry x="90" y="422.5" width="20" height="25" as="geometry"/>
                </mxCell>
                <mxCell id="6buULSpLYs9w62zqvoPo-32" value="&lt;font style=&quot;font-size: 12px;&quot;&gt;= 4_1\4&lt;/font&gt;" style="text;strokeColor=none;fillColor=none;html=1;fontSize=24;fontStyle=1;verticalAlign=middle;align=center;" parent="1" vertex="1">
                    <mxGeometry x="90" y="390" width="100" height="43" as="geometry"/>
                </mxCell>
            </root>
        </mxGraphModel>
    </diagram>
</mxfile>